<?xml version="1.0" encoding="UTF-8" standalone="no"?><!DOCTYPE svg PUBLIC "-//W3C//DTD SVG 1.1//EN" "http://www.w3.org/Graphics/SVG/1.1/DTD/svg11.dtd"><svg width="100%" height="100%" viewBox="0 0 763 234" version="1.1" xmlns="http://www.w3.org/2000/svg" xmlns:xlink="http://www.w3.org/1999/xlink" xml:space="preserve" xmlns:serif="http://www.serif.com/" style="fill-rule:evenodd;clip-rule:evenodd;stroke-linejoin:round;stroke-miterlimit:2;"><g><path d="M0.75,73.125l-0,127.375l23.458,0l0,-60.708l16.084,35.083l16.125,-35.667l-0,61.292l23.458,0c0.042,-66.792 0.083,-105.25 0.125,-127.375l-21.708,0l-17.959,45.875l-18.125,-45.875l-21.458,0Z" style="fill:#fff;"/><path d="M122.5,119.708l-13.625,80.709l-24.875,0.083l24.458,-127.333l28.084,-0l24.458,127.333l-24.833,-0.083l-13.667,-80.709Z" style="fill:#fff;"/><path d="M230.667,200.542l-22.084,-0l0.125,-0c-1.458,-3.959 -5.916,-16.167 -19.791,-54.042l-0,53.958l-23.459,0l0,-127.375l18.209,0l23.541,57.792l0,-57.708l23.459,-0l-0,127.375l-0.125,-0l0.125,-0Z" style="fill:#fff;"/><path d="M762.167,200.5l-22.042,0l0.125,0c-1.458,-3.917 -5.917,-16.167 -19.792,-54.042l0,53.959l-23.458,-0l-0,-127.375l18.167,-0l23.541,57.791l0,-57.708l23.459,0l-0,127.375l-0.125,0l0.125,0Z" style="fill:#fff;"/><path d="M339.958,119.667l-13.625,80.708l-24.875,0.083l24.5,-127.333l28.042,0l24.5,127.333l-24.875,-0.083l-13.667,-80.708Z" style="fill:#fff;"/><path d="M654,119.667l-13.625,80.708l-24.875,0.083l24.458,-127.333l28.084,0l24.458,127.333l-24.875,-0.083l-13.625,-80.708Z" style="fill:#fff;"/><path d="M611.583,200.458l-24.75,0.042l0,-127.375l24.75,-0l0,127.333Z" style="fill:#fff;"/><path d="M285.5,200.5l-48.208,0l-0,-127.375l48.208,0c8.333,0 15.083,6.792 15.083,15.125l0,0.125l0,-0.25l0,97.417l0,-0.292l0,0.125c0,8.375 -6.75,15.125 -15.083,15.125Zm-13.333,-23.042c1.125,0 2,-0.875 2,-2l-0,-77.083l-0,0.083l-0,-0.041c-0,-1.084 -0.875,-2 -2,-2l-10.75,-0l-0,81.083l10.75,-0.042Z" style="fill:#fff;"/><path d="M495.458,73.167l-40.208,-0c-6.333,-0 -11.458,5.125 -11.458,11.458l-0,104.458c-0,6.334 5.125,11.459 11.458,11.459l40.208,-0c6.334,-0 11.459,-5.125 11.459,-11.459l-0,-104.458c-0,-6.333 -5.125,-11.458 -11.459,-11.458Zm-14.708,104.291c1.125,0 2,-0.875 2,-2l0,-77.041c0,-1.084 -0.875,-2 -2,-2l-11.5,-0l0.083,-0l-0.041,-0c-1.084,-0 -2,0.916 -2,2l-0,77.041c-0,1.125 0.916,2 2,2l11.458,0Z" style="fill:#fff;"/><path d="M407.417,177.458l29.833,0l-0,23.042l-53.333,0l-0,-127.375l23.458,0c0.042,49.917 0.042,82.75 0.042,104.333Z" style="fill:#fff;"/><path d="M554.083,124.625c1.084,0 2,-0.917 2,-2l0,-24.25c0,-1.083 -0.916,-2 -2,-2l-15.291,0l-0,104.083l-24.125,0l-0,-127.333l53.208,-0.458c6.333,-0 11.458,5.125 11.458,11.458l0,-0.083l0,52.333l0,-0.083c0,6.333 -5.125,11.458 -11.458,11.458l0.083,0l-2.708,0c10.708,30.833 15.875,45.625 18.333,52.75l0.084,-0.042l-27.584,0c-6.625,-25.625 -10.083,-38.875 -11.833,-45.75l0,-30.083l9.833,0Z" style="fill:#fff;"/><path d="M386.917,44.375l-0,7.625l6.208,0l-0,-19.333l-6.208,-0l-0,7.958l-11.459,0l0,-7.958l-6.208,-0l-0,19.333l6.208,0l0,-7.625l11.459,0Z" style="fill:#fff;"/><path d="M364.333,32.667l0,3.75l-8.708,-0.084l-0,15.667l-6.208,0l-0,-15.583l-8.709,-0l0,-3.75l23.625,-0Z" style="fill:#fff;"/><path d="M408.375,44.375l-0,3.875l14.375,-0l-0,3.708l-20.542,0l0,-19.333l20.542,-0l-0,3.75l-0,-0.083l-14.375,-0l-0,4.333l11.208,-0l0,3.75l-11.208,-0Z" style="fill:#fff;"/><rect x="-0" y="46.917" width="338.5" height="6.208" style="fill:#fff;"/><rect x="433.667" y="47.042" width="328.5" height="6.208" style="fill:#fff;"/></g></svg>